<svg width="600" height="700" viewBox="0 0 670 570" fill="none" xmlns="http://www.w3.org/2000/svg">
<g clip-path="url(#clip0_284_2223)">
<path d="M357.177 360.167V504.377C350.44 504.289 343.84 502.459 338.02 499.067L117.466 369.794C111.959 366.601 109.18 361.127 108.895 355.539H108.847V349.497L357.177 360.167Z" fill="#525575"/>
<path d="M622.463 399.266V407.299H622.256C622.877 412.572 620.653 418.049 615.428 421.048L406.968 539.456C400.538 543.105 393.25 544.976 385.855 544.876V389.085L622.463 399.266Z" fill="#525575"/>
<path opacity="0.17" d="M338.015 529.92L117.486 400.659C105.8 393.816 105.914 376.89 117.694 370.198L308.403 261.857C312.844 259.333 317.873 258.023 322.983 258.057C328.093 258.092 333.103 259.47 337.511 262.053L569.833 398.221C578.402 403.239 578.318 415.651 569.68 420.56L376.724 530.169C370.819 533.527 364.132 535.272 357.336 535.228C350.541 535.184 343.877 533.354 338.015 529.92Z" fill="#2D2F4F"/>
<path d="M357.177 359.384V503.594C350.44 503.505 343.84 501.676 338.02 498.284L117.466 369.011C111.959 365.818 109.18 360.344 108.895 354.756H108.847V348.714L357.177 359.384Z" fill="#BEC2CC"/>
<path d="M576.2 368.816V376.243H576.008C576.583 381.124 574.524 386.194 569.688 388.97L376.721 498.577C370.769 501.955 364.023 503.687 357.178 503.595V359.385L576.2 368.816Z" fill="#9CA1B7"/>
<path d="M338.015 489.196L117.486 359.932C105.8 353.09 105.914 336.163 117.694 329.474L308.403 221.132C312.845 218.61 317.873 217.3 322.983 217.335C328.093 217.369 333.103 218.748 337.511 221.331L569.833 357.499C578.402 362.516 578.318 374.929 569.68 379.835L376.724 489.447C370.818 492.803 364.131 494.548 357.336 494.503C350.541 494.459 343.877 492.629 338.015 489.196Z" fill="url(#paint0_linear_284_2223)"/>
<path d="M569.691 378.97L376.736 488.579C370.829 491.936 364.142 493.678 357.346 493.632C350.551 493.586 343.887 491.753 338.027 488.317L117.486 359.056C114.897 357.558 112.737 355.419 111.215 352.845C109.693 350.271 108.86 347.349 108.796 344.36C108.707 347.497 109.468 350.599 110.997 353.34C112.527 356.081 114.769 358.358 117.486 359.932L338.015 489.195C343.876 492.63 350.54 494.463 357.335 494.509C364.13 494.555 370.817 492.813 376.725 489.458L569.691 379.846C571.748 378.691 573.445 376.991 574.595 374.933C575.745 372.876 576.303 370.541 576.208 368.186C576.147 370.393 575.515 372.546 574.373 374.436C573.231 376.326 571.618 377.888 569.691 378.97Z" fill="url(#paint1_linear_284_2223)"/>
<g opacity="0.26">
<path opacity="0.04" d="M232.069 366.464C254.882 366.464 273.376 357.112 273.376 345.576C273.376 334.039 254.882 324.688 232.069 324.688C209.255 324.688 190.761 334.039 190.761 345.576C190.761 357.112 209.255 366.464 232.069 366.464Z" fill="#1D2035"/>
<path opacity="0.07" d="M232.069 365.932C254.472 365.932 272.633 356.818 272.633 345.575C272.633 334.333 254.472 325.219 232.069 325.219C209.667 325.219 191.506 334.333 191.506 345.575C191.506 356.818 209.667 365.932 232.069 365.932Z" fill="#1D2035"/>
<path opacity="0.11" d="M232.068 365.402C254.061 365.402 271.89 356.525 271.89 345.576C271.89 334.627 254.061 325.751 232.068 325.751C210.076 325.751 192.247 334.627 192.247 345.576C192.247 356.525 210.076 365.402 232.068 365.402Z" fill="#1D2035"/>
<path opacity="0.15" d="M232.069 364.87C253.651 364.87 271.146 356.232 271.146 345.576C271.146 334.92 253.651 326.282 232.069 326.282C210.488 326.282 192.992 334.92 192.992 345.576C192.992 356.232 210.488 364.87 232.069 364.87Z" fill="#1D2035"/>
<path opacity="0.19" d="M232.069 364.34C253.239 364.34 270.402 355.939 270.402 345.575C270.402 335.212 253.239 326.811 232.069 326.811C210.898 326.811 193.736 335.212 193.736 345.575C193.736 355.939 210.898 364.34 232.069 364.34Z" fill="#1D2035"/>
<path opacity="0.22" d="M232.069 363.809C252.83 363.809 269.66 355.646 269.66 345.576C269.66 335.506 252.83 327.343 232.069 327.343C211.308 327.343 194.479 335.506 194.479 345.576C194.479 355.646 211.308 363.809 232.069 363.809Z" fill="#1D2035"/>
<path opacity="0.26" d="M232.069 363.278C252.418 363.278 268.915 355.352 268.915 345.576C268.915 335.799 252.418 327.874 232.069 327.874C211.719 327.874 195.223 335.799 195.223 345.576C195.223 355.352 211.719 363.278 232.069 363.278Z" fill="#1D2035"/>
<path opacity="0.3" d="M232.069 362.746C252.007 362.746 268.17 355.059 268.17 345.576C268.17 336.093 252.007 328.405 232.069 328.405C212.13 328.405 195.967 336.093 195.967 345.576C195.967 355.059 212.13 362.746 232.069 362.746Z" fill="#1D2035"/>
<path opacity="0.33" d="M232.069 362.214C251.597 362.214 267.428 354.765 267.428 345.575C267.428 336.386 251.597 328.937 232.069 328.937C212.54 328.937 196.709 336.386 196.709 345.575C196.709 354.765 212.54 362.214 232.069 362.214Z" fill="#1D2035"/>
<path opacity="0.37" d="M232.069 361.684C251.187 361.684 266.685 354.472 266.685 345.576C266.685 336.68 251.187 329.469 232.069 329.469C212.952 329.469 197.454 336.68 197.454 345.576C197.454 354.472 212.952 361.684 232.069 361.684Z" fill="#1D2035"/>
<path opacity="0.41" d="M232.068 361.155C250.775 361.155 265.939 354.18 265.939 345.576C265.939 336.973 250.775 329.998 232.068 329.998C213.362 329.998 198.197 336.973 198.197 345.576C198.197 354.18 213.362 361.155 232.068 361.155Z" fill="#1D2035"/>
<path opacity="0.44" d="M232.069 360.623C250.364 360.623 265.196 353.886 265.196 345.576C265.196 337.266 250.364 330.529 232.069 330.529C213.774 330.529 198.942 337.266 198.942 345.576C198.942 353.886 213.774 360.623 232.069 360.623Z" fill="#1D2035"/>
<path opacity="0.48" d="M232.069 360.091C249.955 360.091 264.454 353.593 264.454 345.576C264.454 337.559 249.955 331.061 232.069 331.061C214.184 331.061 199.685 337.559 199.685 345.576C199.685 353.593 214.184 360.091 232.069 360.091Z" fill="#1D2035"/>
<path opacity="0.52" d="M232.069 359.56C249.543 359.56 263.709 353.299 263.709 345.576C263.709 337.853 249.543 331.592 232.069 331.592C214.594 331.592 200.429 337.853 200.429 345.576C200.429 353.299 214.594 359.56 232.069 359.56Z" fill="#1D2035"/>
<path opacity="0.56" d="M232.069 359.028C249.132 359.028 262.964 353.005 262.964 345.576C262.964 338.146 249.132 332.123 232.069 332.123C215.005 332.123 201.173 338.146 201.173 345.576C201.173 353.005 215.005 359.028 232.069 359.028Z" fill="#1D2035"/>
<path opacity="0.59" d="M232.069 358.497C248.722 358.497 262.222 352.713 262.222 345.576C262.222 338.44 248.722 332.655 232.069 332.655C215.415 332.655 201.915 338.44 201.915 345.576C201.915 352.713 215.415 358.497 232.069 358.497Z" fill="#1D2035"/>
<path opacity="0.63" d="M232.069 357.968C248.311 357.968 261.478 352.42 261.478 345.576C261.478 338.733 248.311 333.185 232.069 333.185C215.826 333.185 202.659 338.733 202.659 345.576C202.659 352.42 215.826 357.968 232.069 357.968Z" fill="#1D2035"/>
<path opacity="0.67" d="M232.069 357.436C247.9 357.436 260.734 352.126 260.734 345.575C260.734 339.025 247.9 333.715 232.069 333.715C216.238 333.715 203.404 339.025 203.404 345.575C203.404 352.126 216.238 357.436 232.069 357.436Z" fill="#1D2035"/>
<path opacity="0.7" d="M232.068 356.905C247.49 356.905 259.991 351.833 259.991 345.576C259.991 339.319 247.49 334.247 232.068 334.247C216.647 334.247 204.146 339.319 204.146 345.576C204.146 351.833 216.647 356.905 232.068 356.905Z" fill="#1D2035"/>
<path opacity="0.74" d="M232.069 356.374C247.079 356.374 259.248 351.539 259.248 345.576C259.248 339.613 247.079 334.778 232.069 334.778C217.059 334.778 204.891 339.613 204.891 345.576C204.891 351.539 217.059 356.374 232.069 356.374Z" fill="#1D2035"/>
<path opacity="0.78" d="M232.069 355.842C246.668 355.842 258.503 351.246 258.503 345.576C258.503 339.906 246.668 335.31 232.069 335.31C217.47 335.31 205.635 339.906 205.635 345.576C205.635 351.246 217.47 355.842 232.069 355.842Z" fill="#1D2035"/>
<path opacity="0.81" d="M232.069 355.311C246.257 355.311 257.758 350.953 257.758 345.577C257.758 340.2 246.257 335.842 232.069 335.842C217.881 335.842 206.379 340.2 206.379 345.577C206.379 350.953 217.881 355.311 232.069 355.311Z" fill="#1D2035"/>
<path opacity="0.85" d="M232.069 354.781C245.847 354.781 257.016 350.66 257.016 345.576C257.016 340.492 245.847 336.37 232.069 336.37C218.291 336.37 207.121 340.492 207.121 345.576C207.121 350.66 218.291 354.781 232.069 354.781Z" fill="#1D2035"/>
<path opacity="0.89" d="M232.069 354.25C245.436 354.25 256.272 350.366 256.272 345.576C256.272 340.785 245.436 336.901 232.069 336.901C218.701 336.901 207.865 340.785 207.865 345.576C207.865 350.366 218.701 354.25 232.069 354.25Z" fill="#1D2035"/>
<path opacity="0.93" d="M232.068 353.718C245.024 353.718 255.527 350.072 255.527 345.575C255.527 341.078 245.024 337.433 232.068 337.433C219.112 337.433 208.609 341.078 208.609 345.575C208.609 350.072 219.112 353.718 232.068 353.718Z" fill="#1D2035"/>
<path opacity="0.96" d="M232.068 353.187C244.615 353.187 254.785 349.78 254.785 345.576C254.785 341.373 244.615 337.965 232.068 337.965C219.522 337.965 209.352 341.373 209.352 345.576C209.352 349.78 219.522 353.187 232.068 353.187Z" fill="#1D2035"/>
<path d="M232.069 352.656C244.204 352.656 254.042 349.486 254.042 345.576C254.042 341.666 244.204 338.496 232.069 338.496C219.934 338.496 210.097 341.666 210.097 345.576C210.097 349.486 219.934 352.656 232.069 352.656Z" fill="#1D2035"/>
</g>
<g opacity="0.26">
<path opacity="0.04" d="M340.093 443.156C362.907 443.156 381.401 433.804 381.401 422.268C381.401 410.732 362.907 401.38 340.093 401.38C317.279 401.38 298.785 410.732 298.785 422.268C298.785 433.804 317.279 443.156 340.093 443.156Z" fill="#1D2035"/>
<path opacity="0.07" d="M340.094 442.625C362.496 442.625 380.657 433.511 380.657 422.268C380.657 411.025 362.496 401.911 340.094 401.911C317.691 401.911 299.53 411.025 299.53 422.268C299.53 433.511 317.691 442.625 340.094 442.625Z" fill="#1D2035"/>
<path opacity="0.11" d="M340.093 442.093C362.086 442.093 379.914 433.217 379.914 422.268C379.914 411.318 362.086 402.442 340.093 402.442C318.1 402.442 300.271 411.318 300.271 422.268C300.271 433.217 318.1 442.093 340.093 442.093Z" fill="#1D2035"/>
<path opacity="0.15" d="M340.094 441.561C361.675 441.561 379.171 432.923 379.171 422.267C379.171 411.612 361.675 402.974 340.094 402.974C318.512 402.974 301.017 411.612 301.017 422.267C301.017 432.923 318.512 441.561 340.094 441.561Z" fill="#1D2035"/>
<path opacity="0.19" d="M340.093 441.032C361.264 441.032 378.426 432.631 378.426 422.268C378.426 411.904 361.264 403.503 340.093 403.503C318.923 403.503 301.761 411.904 301.761 422.268C301.761 432.631 318.923 441.032 340.093 441.032Z" fill="#1D2035"/>
<path opacity="0.22" d="M340.093 440.501C360.854 440.501 377.684 432.337 377.684 422.267C377.684 412.197 360.854 404.034 340.093 404.034C319.333 404.034 302.503 412.197 302.503 422.267C302.503 432.337 319.333 440.501 340.093 440.501Z" fill="#1D2035"/>
<path opacity="0.26" d="M340.093 439.97C360.443 439.97 376.939 432.045 376.939 422.268C376.939 412.492 360.443 404.566 340.093 404.566C319.744 404.566 303.247 412.492 303.247 422.268C303.247 432.045 319.744 439.97 340.093 439.97Z" fill="#1D2035"/>
<path opacity="0.3" d="M340.093 439.437C360.031 439.437 376.195 431.75 376.195 422.267C376.195 412.784 360.031 405.097 340.093 405.097C320.155 405.097 303.991 412.784 303.991 422.267C303.991 431.75 320.155 439.437 340.093 439.437Z" fill="#1D2035"/>
<path opacity="0.33" d="M340.093 438.907C359.622 438.907 375.453 431.457 375.453 422.268C375.453 413.078 359.622 405.629 340.093 405.629C320.564 405.629 304.733 413.078 304.733 422.268C304.733 431.457 320.564 438.907 340.093 438.907Z" fill="#1D2035"/>
<path opacity="0.37" d="M340.093 438.375C359.21 438.375 374.708 431.164 374.708 422.268C374.708 413.372 359.21 406.16 340.093 406.16C320.975 406.16 305.478 413.372 305.478 422.268C305.478 431.164 320.975 438.375 340.093 438.375Z" fill="#1D2035"/>
<path opacity="0.41" d="M340.093 437.846C358.799 437.846 373.964 430.871 373.964 422.268C373.964 413.664 358.799 406.689 340.093 406.689C321.386 406.689 306.222 413.664 306.222 422.268C306.222 430.871 321.386 437.846 340.093 437.846Z" fill="#1D2035"/>
<path opacity="0.44" d="M340.093 437.314C358.389 437.314 373.22 430.578 373.22 422.268C373.22 413.957 358.389 407.221 340.093 407.221C321.798 407.221 306.967 413.957 306.967 422.268C306.967 430.578 321.798 437.314 340.093 437.314Z" fill="#1D2035"/>
<path opacity="0.48" d="M340.093 436.783C357.979 436.783 372.478 430.284 372.478 422.267C372.478 414.251 357.979 407.752 340.093 407.752C322.208 407.752 307.709 414.251 307.709 422.267C307.709 430.284 322.208 436.783 340.093 436.783Z" fill="#1D2035"/>
<path opacity="0.52" d="M340.093 436.252C357.568 436.252 371.733 429.991 371.733 422.268C371.733 414.545 357.568 408.284 340.093 408.284C322.619 408.284 308.453 414.545 308.453 422.268C308.453 429.991 322.619 436.252 340.093 436.252Z" fill="#1D2035"/>
<path opacity="0.56" d="M340.093 435.721C357.156 435.721 370.989 429.698 370.989 422.268C370.989 414.838 357.156 408.815 340.093 408.815C323.03 408.815 309.197 414.838 309.197 422.268C309.197 429.698 323.03 435.721 340.093 435.721Z" fill="#1D2035"/>
<path opacity="0.59" d="M340.093 435.189C356.747 435.189 370.247 429.404 370.247 422.268C370.247 415.132 356.747 409.347 340.093 409.347C323.44 409.347 309.939 415.132 309.939 422.268C309.939 429.404 323.44 435.189 340.093 435.189Z" fill="#1D2035"/>
<path opacity="0.63" d="M340.093 434.659C356.335 434.659 369.502 429.111 369.502 422.267C369.502 415.423 356.335 409.875 340.093 409.875C323.851 409.875 310.684 415.423 310.684 422.267C310.684 429.111 323.851 434.659 340.093 434.659Z" fill="#1D2035"/>
<path opacity="0.67" d="M340.094 434.128C355.925 434.128 368.759 428.818 368.759 422.268C368.759 415.717 355.925 410.407 340.094 410.407C324.262 410.407 311.429 415.717 311.429 422.268C311.429 428.818 324.262 434.128 340.094 434.128Z" fill="#1D2035"/>
<path opacity="0.7" d="M340.093 433.597C355.514 433.597 368.016 428.524 368.016 422.268C368.016 416.011 355.514 410.938 340.093 410.938C324.671 410.938 312.17 416.011 312.17 422.268C312.17 428.524 324.671 433.597 340.093 433.597Z" fill="#1D2035"/>
<path opacity="0.74" d="M340.094 433.065C355.104 433.065 367.272 428.231 367.272 422.267C367.272 416.304 355.104 411.47 340.094 411.47C325.083 411.47 312.915 416.304 312.915 422.267C312.915 428.231 325.083 433.065 340.094 433.065Z" fill="#1D2035"/>
<path opacity="0.78" d="M340.093 432.533C354.693 432.533 366.527 427.937 366.527 422.267C366.527 416.597 354.693 412.001 340.093 412.001C325.494 412.001 313.659 416.597 313.659 422.267C313.659 427.937 325.494 432.533 340.093 432.533Z" fill="#1D2035"/>
<path opacity="0.81" d="M340.093 432.003C354.281 432.003 365.783 427.644 365.783 422.268C365.783 416.892 354.281 412.533 340.093 412.533C325.905 412.533 314.403 416.892 314.403 422.268C314.403 427.644 325.905 432.003 340.093 432.003Z" fill="#1D2035"/>
<path opacity="0.85" d="M340.093 431.471C353.871 431.471 365.041 427.351 365.041 422.268C365.041 417.185 353.871 413.064 340.093 413.064C326.315 413.064 315.146 417.185 315.146 422.268C315.146 427.351 326.315 431.471 340.093 431.471Z" fill="#1D2035"/>
<path opacity="0.89" d="M340.093 430.942C353.46 430.942 364.296 427.058 364.296 422.268C364.296 417.477 353.46 413.594 340.093 413.594C326.726 413.594 315.89 417.477 315.89 422.268C315.89 427.058 326.726 430.942 340.093 430.942Z" fill="#1D2035"/>
<path opacity="0.93" d="M340.093 430.41C353.049 430.41 363.552 426.765 363.552 422.268C363.552 417.771 353.049 414.125 340.093 414.125C327.137 414.125 316.634 417.771 316.634 422.268C316.634 426.765 327.137 430.41 340.093 430.41Z" fill="#1D2035"/>
<path opacity="0.96" d="M340.093 429.879C352.639 429.879 362.81 426.471 362.81 422.267C362.81 418.064 352.639 414.656 340.093 414.656C327.547 414.656 317.376 418.064 317.376 422.267C317.376 426.471 327.547 429.879 340.093 429.879Z" fill="#1D2035"/>
<path d="M340.094 429.347C352.229 429.347 362.066 426.177 362.066 422.267C362.066 418.357 352.229 415.188 340.094 415.188C327.959 415.188 318.121 418.357 318.121 422.267C318.121 426.177 327.959 429.347 340.094 429.347Z" fill="#1D2035"/>
</g>
<g opacity="0.26">
<path opacity="0.04" d="M494.431 417.038C517.244 417.038 535.739 407.686 535.739 396.15C535.739 384.614 517.244 375.262 494.431 375.262C471.617 375.262 453.123 384.614 453.123 396.15C453.123 407.686 471.617 417.038 494.431 417.038Z" fill="#1D2035"/>
<path opacity="0.07" d="M494.431 416.506C516.833 416.506 534.994 407.392 534.994 396.15C534.994 384.907 516.833 375.793 494.431 375.793C472.028 375.793 453.867 384.907 453.867 396.15C453.867 407.392 472.028 416.506 494.431 416.506Z" fill="#1D2035"/>
<path opacity="0.11" d="M494.431 415.976C516.423 415.976 534.252 407.1 534.252 396.15C534.252 385.201 516.423 376.325 494.431 376.325C472.438 376.325 454.609 385.201 454.609 396.15C454.609 407.1 472.438 415.976 494.431 415.976Z" fill="#1D2035"/>
<path opacity="0.15" d="M494.43 415.444C516.012 415.444 533.507 406.806 533.507 396.15C533.507 385.495 516.012 376.856 494.43 376.856C472.849 376.856 455.354 385.495 455.354 396.15C455.354 406.806 472.849 415.444 494.43 415.444Z" fill="#1D2035"/>
<path opacity="0.19" d="M494.431 414.915C515.602 414.915 532.764 406.514 532.764 396.15C532.764 385.787 515.602 377.386 494.431 377.386C473.261 377.386 456.099 385.787 456.099 396.15C456.099 406.514 473.261 414.915 494.431 414.915Z" fill="#1D2035"/>
<path opacity="0.22" d="M494.43 414.383C515.191 414.383 532.021 406.22 532.021 396.15C532.021 386.08 515.191 377.917 494.43 377.917C473.67 377.917 456.84 386.08 456.84 396.15C456.84 406.22 473.67 414.383 494.43 414.383Z" fill="#1D2035"/>
<path opacity="0.26" d="M494.431 413.852C514.781 413.852 531.277 405.926 531.277 396.15C531.277 386.374 514.781 378.448 494.431 378.448C474.082 378.448 457.585 386.374 457.585 396.15C457.585 405.926 474.082 413.852 494.431 413.852Z" fill="#1D2035"/>
<path opacity="0.3" d="M494.431 413.32C514.369 413.32 530.533 405.633 530.533 396.15C530.533 386.667 514.369 378.979 494.431 378.979C474.492 378.979 458.329 386.667 458.329 396.15C458.329 405.633 474.492 413.32 494.431 413.32Z" fill="#1D2035"/>
<path opacity="0.33" d="M494.431 412.79C513.96 412.79 529.791 405.34 529.791 396.151C529.791 386.961 513.96 379.512 494.431 379.512C474.902 379.512 459.071 386.961 459.071 396.151C459.071 405.34 474.902 412.79 494.431 412.79Z" fill="#1D2035"/>
<path opacity="0.37" d="M494.431 412.258C513.548 412.258 529.046 405.046 529.046 396.15C529.046 387.255 513.548 380.043 494.431 380.043C475.313 380.043 459.815 387.255 459.815 396.15C459.815 405.046 475.313 412.258 494.431 412.258Z" fill="#1D2035"/>
<path opacity="0.41" d="M494.431 411.728C513.137 411.728 528.301 404.753 528.301 396.15C528.301 387.546 513.137 380.571 494.431 380.571C475.724 380.571 460.56 387.546 460.56 396.15C460.56 404.753 475.724 411.728 494.431 411.728Z" fill="#1D2035"/>
<path opacity="0.44" d="M494.431 411.197C512.727 411.197 527.558 404.461 527.558 396.15C527.558 387.84 512.727 381.104 494.431 381.104C476.136 381.104 461.305 387.84 461.305 396.15C461.305 404.461 476.136 411.197 494.431 411.197Z" fill="#1D2035"/>
<path opacity="0.48" d="M494.431 410.666C512.317 410.666 526.816 404.167 526.816 396.15C526.816 388.134 512.317 381.635 494.431 381.635C476.546 381.635 462.047 388.134 462.047 396.15C462.047 404.167 476.546 410.666 494.431 410.666Z" fill="#1D2035"/>
<path opacity="0.52" d="M494.431 410.134C511.906 410.134 526.071 403.873 526.071 396.15C526.071 388.427 511.906 382.166 494.431 382.166C476.957 382.166 462.791 388.427 462.791 396.15C462.791 403.873 476.957 410.134 494.431 410.134Z" fill="#1D2035"/>
<path opacity="0.56" d="M494.431 409.602C511.494 409.602 525.327 403.579 525.327 396.15C525.327 388.72 511.494 382.697 494.431 382.697C477.368 382.697 463.535 388.72 463.535 396.15C463.535 403.579 477.368 409.602 494.431 409.602Z" fill="#1D2035"/>
<path opacity="0.59" d="M494.431 409.072C511.084 409.072 524.585 403.287 524.585 396.151C524.585 389.014 511.084 383.229 494.431 383.229C477.778 383.229 464.277 389.014 464.277 396.151C464.277 403.287 477.778 409.072 494.431 409.072Z" fill="#1D2035"/>
<path opacity="0.63" d="M494.431 408.542C510.673 408.542 523.84 402.994 523.84 396.15C523.84 389.306 510.673 383.758 494.431 383.758C478.188 383.758 465.021 389.306 465.021 396.15C465.021 402.994 478.188 408.542 494.431 408.542Z" fill="#1D2035"/>
<path opacity="0.67" d="M494.431 408.011C510.262 408.011 523.096 402.701 523.096 396.151C523.096 389.6 510.262 384.29 494.431 384.29C478.599 384.29 465.766 389.6 465.766 396.151C465.766 402.701 478.599 408.011 494.431 408.011Z" fill="#1D2035"/>
<path opacity="0.7" d="M494.431 407.479C509.852 407.479 522.354 402.407 522.354 396.15C522.354 389.893 509.852 384.821 494.431 384.821C479.009 384.821 466.508 389.893 466.508 396.15C466.508 402.407 479.009 407.479 494.431 407.479Z" fill="#1D2035"/>
<path opacity="0.74" d="M494.43 406.948C509.441 406.948 521.609 402.114 521.609 396.15C521.609 390.187 509.441 385.353 494.43 385.353C479.42 385.353 467.252 390.187 467.252 396.15C467.252 402.114 479.42 406.948 494.43 406.948Z" fill="#1D2035"/>
<path opacity="0.78" d="M494.431 406.416C509.03 406.416 520.865 401.82 520.865 396.15C520.865 390.48 509.03 385.884 494.431 385.884C479.832 385.884 467.997 390.48 467.997 396.15C467.997 401.82 479.832 406.416 494.431 406.416Z" fill="#1D2035"/>
<path opacity="0.81" d="M494.431 405.885C508.619 405.885 520.121 401.526 520.121 396.15C520.121 390.773 508.619 386.415 494.431 386.415C480.243 386.415 468.741 390.773 468.741 396.15C468.741 401.526 480.243 405.885 494.431 405.885Z" fill="#1D2035"/>
<path opacity="0.85" d="M494.431 405.355C508.209 405.355 519.379 401.234 519.379 396.15C519.379 391.066 508.209 386.944 494.431 386.944C480.653 386.944 469.483 391.066 469.483 396.15C469.483 401.234 480.653 405.355 494.431 405.355Z" fill="#1D2035"/>
<path opacity="0.89" d="M494.431 404.824C507.798 404.824 518.634 400.94 518.634 396.15C518.634 391.359 507.798 387.476 494.431 387.476C481.064 387.476 470.228 391.359 470.228 396.15C470.228 400.94 481.064 404.824 494.431 404.824Z" fill="#1D2035"/>
<path opacity="0.93" d="M494.431 404.292C507.387 404.292 517.89 400.647 517.89 396.15C517.89 391.652 507.387 388.007 494.431 388.007C481.475 388.007 470.972 391.652 470.972 396.15C470.972 400.647 481.475 404.292 494.431 404.292Z" fill="#1D2035"/>
<path opacity="0.96" d="M494.431 403.762C506.977 403.762 517.148 400.354 517.148 396.15C517.148 391.947 506.977 388.539 494.431 388.539C481.885 388.539 471.714 391.947 471.714 396.15C471.714 400.354 481.885 403.762 494.431 403.762Z" fill="#1D2035"/>
<path d="M494.431 403.23C506.567 403.23 516.404 400.06 516.404 396.15C516.404 392.24 506.567 389.07 494.431 389.07C482.296 389.07 472.459 392.24 472.459 396.15C472.459 400.06 482.296 403.23 494.431 403.23Z" fill="#1D2035"/>
</g>
<g opacity="0.26">
<path opacity="0.04" d="M397.827 395.618C420.641 395.618 439.135 386.266 439.135 374.73C439.135 363.194 420.641 353.842 397.827 353.842C375.014 353.842 356.52 363.194 356.52 374.73C356.52 386.266 375.014 395.618 397.827 395.618Z" fill="#1D2035"/>
<path opacity="0.07" d="M397.827 395.086C420.23 395.086 438.39 385.972 438.39 374.73C438.39 363.487 420.23 354.373 397.827 354.373C375.425 354.373 357.264 363.487 357.264 374.73C357.264 385.972 375.425 395.086 397.827 395.086Z" fill="#1D2035"/>
<path opacity="0.11" d="M397.827 394.556C419.82 394.556 437.649 385.68 437.649 374.731C437.649 363.781 419.82 354.905 397.827 354.905C375.834 354.905 358.006 363.781 358.006 374.731C358.006 385.68 375.834 394.556 397.827 394.556Z" fill="#1D2035"/>
<path opacity="0.15" d="M397.827 394.024C419.409 394.024 436.904 385.386 436.904 374.73C436.904 364.075 419.409 355.437 397.827 355.437C376.245 355.437 358.75 364.075 358.75 374.73C358.75 385.386 376.245 394.024 397.827 394.024Z" fill="#1D2035"/>
<path opacity="0.19" d="M397.828 393.495C418.998 393.495 436.16 385.094 436.16 374.731C436.16 364.367 418.998 355.966 397.828 355.966C376.657 355.966 359.495 364.367 359.495 374.731C359.495 385.094 376.657 393.495 397.828 393.495Z" fill="#1D2035"/>
<path opacity="0.22" d="M397.828 392.964C418.588 392.964 435.418 384.8 435.418 374.73C435.418 364.66 418.588 356.497 397.828 356.497C377.067 356.497 360.237 364.66 360.237 374.73C360.237 384.8 377.067 392.964 397.828 392.964Z" fill="#1D2035"/>
<path opacity="0.26" d="M397.828 392.432C418.177 392.432 434.674 384.507 434.674 374.73C434.674 364.954 418.177 357.028 397.828 357.028C377.478 357.028 360.981 364.954 360.981 374.73C360.981 384.507 377.478 392.432 397.828 392.432Z" fill="#1D2035"/>
<path opacity="0.3" d="M397.827 391.9C417.766 391.9 433.929 384.213 433.929 374.73C433.929 365.247 417.766 357.56 397.827 357.56C377.889 357.56 361.726 365.247 361.726 374.73C361.726 384.213 377.889 391.9 397.827 391.9Z" fill="#1D2035"/>
<path opacity="0.33" d="M397.827 391.37C417.356 391.37 433.187 383.92 433.187 374.731C433.187 365.541 417.356 358.092 397.827 358.092C378.299 358.092 362.468 365.541 362.468 374.731C362.468 383.92 378.299 391.37 397.827 391.37Z" fill="#1D2035"/>
<path opacity="0.37" d="M397.827 390.838C416.945 390.838 432.443 383.626 432.443 374.731C432.443 365.835 416.945 358.623 397.827 358.623C378.71 358.623 363.212 365.835 363.212 374.731C363.212 383.626 378.71 390.838 397.827 390.838Z" fill="#1D2035"/>
<path opacity="0.41" d="M397.828 390.309C416.534 390.309 431.699 383.334 431.699 374.731C431.699 366.127 416.534 359.152 397.828 359.152C379.122 359.152 363.957 366.127 363.957 374.731C363.957 383.334 379.122 390.309 397.828 390.309Z" fill="#1D2035"/>
<path opacity="0.44" d="M397.828 389.777C416.123 389.777 430.954 383.041 430.954 374.73C430.954 366.42 416.123 359.684 397.828 359.684C379.532 359.684 364.701 366.42 364.701 374.73C364.701 383.041 379.532 389.777 397.828 389.777Z" fill="#1D2035"/>
<path opacity="0.48" d="M397.828 389.246C415.713 389.246 430.212 382.747 430.212 374.73C430.212 366.714 415.713 360.215 397.828 360.215C379.942 360.215 365.443 366.714 365.443 374.73C365.443 382.747 379.942 389.246 397.828 389.246Z" fill="#1D2035"/>
<path opacity="0.52" d="M397.828 388.714C415.302 388.714 429.468 382.453 429.468 374.73C429.468 367.007 415.302 360.746 397.828 360.746C380.353 360.746 366.188 367.007 366.188 374.73C366.188 382.453 380.353 388.714 397.828 388.714Z" fill="#1D2035"/>
<path opacity="0.56" d="M397.827 388.182C414.891 388.182 428.723 382.16 428.723 374.73C428.723 367.3 414.891 361.277 397.827 361.277C380.764 361.277 366.932 367.3 366.932 374.73C366.932 382.16 380.764 388.182 397.827 388.182Z" fill="#1D2035"/>
<path opacity="0.59" d="M397.828 387.651C414.481 387.651 427.981 381.866 427.981 374.73C427.981 367.594 414.481 361.809 397.828 361.809C381.174 361.809 367.674 367.594 367.674 374.73C367.674 381.866 381.174 387.651 397.828 387.651Z" fill="#1D2035"/>
<path opacity="0.63" d="M397.827 387.123C414.07 387.123 427.237 381.575 427.237 374.731C427.237 367.887 414.07 362.339 397.827 362.339C381.585 362.339 368.418 367.887 368.418 374.731C368.418 381.575 381.585 387.123 397.827 387.123Z" fill="#1D2035"/>
<path opacity="0.67" d="M397.827 386.591C413.658 386.591 426.492 381.281 426.492 374.731C426.492 368.18 413.658 362.87 397.827 362.87C381.996 362.87 369.162 368.18 369.162 374.731C369.162 381.281 381.996 386.591 397.827 386.591Z" fill="#1D2035"/>
<path opacity="0.7" d="M397.827 386.059C413.249 386.059 425.75 380.987 425.75 374.73C425.75 368.474 413.249 363.401 397.827 363.401C382.406 363.401 369.904 368.474 369.904 374.73C369.904 380.987 382.406 386.059 397.827 386.059Z" fill="#1D2035"/>
<path opacity="0.74" d="M397.827 385.528C412.837 385.528 425.005 380.694 425.005 374.73C425.005 368.767 412.837 363.933 397.827 363.933C382.817 363.933 370.648 368.767 370.648 374.73C370.648 380.694 382.817 385.528 397.827 385.528Z" fill="#1D2035"/>
<path opacity="0.78" d="M397.828 384.996C412.427 384.996 424.262 380.4 424.262 374.73C424.262 369.06 412.427 364.464 397.828 364.464C383.229 364.464 371.394 369.06 371.394 374.73C371.394 380.4 383.229 384.996 397.828 384.996Z" fill="#1D2035"/>
<path opacity="0.81" d="M397.827 384.465C412.016 384.465 423.517 380.106 423.517 374.73C423.517 369.354 412.016 364.995 397.827 364.995C383.639 364.995 372.138 369.354 372.138 374.73C372.138 380.106 383.639 384.465 397.827 384.465Z" fill="#1D2035"/>
<path opacity="0.85" d="M397.828 383.937C411.606 383.937 422.775 379.815 422.775 374.731C422.775 369.647 411.606 365.525 397.828 365.525C384.049 365.525 372.88 369.647 372.88 374.731C372.88 379.815 384.049 383.937 397.828 383.937Z" fill="#1D2035"/>
<path opacity="0.89" d="M397.827 383.404C411.194 383.404 422.031 379.52 422.031 374.73C422.031 369.939 411.194 366.056 397.827 366.056C384.46 366.056 373.624 369.939 373.624 374.73C373.624 379.52 384.46 383.404 397.827 383.404Z" fill="#1D2035"/>
<path opacity="0.93" d="M397.827 382.873C410.783 382.873 421.286 379.228 421.286 374.731C421.286 370.234 410.783 366.588 397.827 366.588C384.871 366.588 374.368 370.234 374.368 374.731C374.368 379.228 384.871 382.873 397.827 382.873Z" fill="#1D2035"/>
<path opacity="0.96" d="M397.827 382.342C410.373 382.342 420.544 378.934 420.544 374.73C420.544 370.527 410.373 367.119 397.827 367.119C385.281 367.119 375.11 370.527 375.11 374.73C375.11 378.934 385.281 382.342 397.827 382.342Z" fill="#1D2035"/>
<path d="M397.828 381.81C409.963 381.81 419.801 378.64 419.801 374.73C419.801 370.82 409.963 367.65 397.828 367.65C385.693 367.65 375.855 370.82 375.855 374.73C375.855 378.64 385.693 381.81 397.828 381.81Z" fill="#1D2035"/>
</g>
<path d="M493.081 391.752C493.081 391.752 484.537 399.507 481.751 400.812C478.966 402.116 476.801 404.288 479.354 406.76C481.907 409.232 486.549 410.316 491.965 407.843C497.381 405.371 499.701 402.125 502.409 401.042C505.117 399.959 506.354 399.42 506.818 397.874C507.281 396.327 506.313 394.425 506.313 394.425C506.313 394.425 493.348 394.982 493.081 391.752Z" fill="#1D2035"/>
<path d="M465.271 376.778C465.271 376.778 461.019 381.878 456.996 384.428C452.973 386.978 451.516 388.06 453.824 390.224C456.133 392.389 459.076 393.855 463.572 391.768C468.068 389.681 472.778 385.277 476.569 383.733C480.359 382.189 480.907 382.186 480.907 380.565C480.907 378.943 478.585 376.003 478.585 376.003L465.271 376.778Z" fill="#1D2035"/>
<path d="M417.081 200.05L409.959 196.013C409.807 195.922 409.679 195.797 409.584 195.647C409.488 195.498 409.429 195.329 409.411 195.153C409.411 194.852 409.658 194.747 409.959 194.925L417.081 198.962C417.229 199.052 417.355 199.174 417.449 199.32C417.543 199.466 417.602 199.631 417.622 199.804C417.622 200.114 417.394 200.221 417.081 200.05Z" fill="#C4C5CE"/>
<path d="M407.347 189.937L403.778 187.898C403.642 187.818 403.527 187.707 403.442 187.574C403.357 187.441 403.304 187.29 403.289 187.134C403.289 186.864 403.517 186.769 403.778 186.921L407.347 188.958C407.482 189.039 407.597 189.15 407.682 189.283C407.767 189.416 407.819 189.568 407.835 189.725C407.831 189.996 407.611 190.09 407.347 189.937Z" fill="#C4C5CE"/>
<path d="M407.346 183.61L403.773 181.557C403.637 181.477 403.522 181.366 403.437 181.232C403.352 181.099 403.3 180.948 403.284 180.791C403.284 180.522 403.513 180.426 403.773 180.579L407.342 182.618C407.478 182.698 407.593 182.809 407.678 182.943C407.763 183.076 407.815 183.227 407.83 183.384C407.83 183.66 407.611 183.754 407.346 183.61Z" fill="#C4C5CE"/>
<path d="M407.347 177.267L403.778 175.228C403.642 175.148 403.527 175.037 403.442 174.904C403.357 174.771 403.304 174.62 403.289 174.464C403.289 174.195 403.517 174.099 403.778 174.252L407.347 176.288C407.482 176.369 407.597 176.48 407.682 176.613C407.767 176.747 407.819 176.898 407.835 177.055C407.831 177.324 407.611 177.42 407.347 177.267Z" fill="#C4C5CE"/>
<path d="M407.347 170.932L403.778 168.893C403.642 168.813 403.526 168.701 403.442 168.568C403.357 168.435 403.304 168.284 403.289 168.127C403.289 167.858 403.517 167.762 403.778 167.915L407.347 169.954C407.483 170.034 407.598 170.145 407.683 170.278C407.768 170.412 407.82 170.563 407.835 170.72C407.831 170.989 407.611 171.083 407.347 170.932Z" fill="#C4C5CE"/>
<path d="M407.347 164.596L403.778 162.557C403.642 162.477 403.527 162.366 403.442 162.233C403.357 162.101 403.304 161.95 403.289 161.793C403.289 161.524 403.517 161.428 403.778 161.581L407.347 163.617C407.482 163.698 407.597 163.809 407.682 163.943C407.767 164.076 407.819 164.227 407.835 164.384C407.831 164.653 407.611 164.749 407.347 164.596Z" fill="#C4C5CE"/>
<path d="M407.347 158.262L403.778 156.223C403.642 156.143 403.526 156.032 403.442 155.898C403.357 155.765 403.304 155.614 403.289 155.457C403.289 155.188 403.517 155.092 403.778 155.245L407.347 157.284C407.483 157.364 407.598 157.475 407.683 157.609C407.768 157.742 407.82 157.893 407.835 158.05C407.831 158.319 407.611 158.413 407.347 158.262Z" fill="#C4C5CE"/>
<path d="M427.365 205.88L420.246 201.842C420.094 201.752 419.965 201.627 419.869 201.478C419.774 201.33 419.714 201.161 419.695 200.985C419.695 200.684 419.944 200.577 420.246 200.757L427.365 204.794C427.517 204.884 427.646 205.008 427.742 205.157C427.837 205.306 427.896 205.476 427.913 205.652C427.913 205.943 427.669 206.051 427.365 205.88Z" fill="#C4C5CE"/>
<path d="M437.649 211.71L430.529 207.675C430.378 207.584 430.249 207.459 430.154 207.309C430.059 207.16 430 206.991 429.981 206.815C429.981 206.514 430.228 206.407 430.529 206.587L437.649 210.624C437.801 210.715 437.929 210.84 438.024 210.989C438.12 211.139 438.179 211.308 438.197 211.484C438.197 211.776 437.943 211.892 437.649 211.71Z" fill="#C4C5CE"/>
<path d="M447.933 217.542L440.814 213.505C440.661 213.415 440.532 213.291 440.437 213.142C440.342 212.993 440.283 212.823 440.266 212.648C440.266 212.344 440.512 212.239 440.814 212.419L447.933 216.457C448.085 216.547 448.214 216.672 448.309 216.821C448.405 216.969 448.464 217.138 448.483 217.314C448.483 217.606 448.234 217.713 447.933 217.542Z" fill="#C4C5CE"/>
<path d="M458.22 223.372L451.098 219.335C450.945 219.245 450.816 219.12 450.721 218.971C450.626 218.822 450.567 218.653 450.55 218.477C450.55 218.176 450.796 218.069 451.098 218.249L458.22 222.286C458.372 222.376 458.501 222.5 458.596 222.649C458.691 222.798 458.75 222.968 458.768 223.144C458.768 223.436 458.521 223.543 458.22 223.372Z" fill="#C4C5CE"/>
<path d="M492.159 127.154L336.831 35.8827C335.934 35.3512 334.921 35.0459 333.88 34.9935C332.839 34.941 331.801 35.1429 330.855 35.5816L324.179 38.6037L327.037 41.5324V194.122C327.038 195.8 327.476 197.448 328.31 198.904C329.144 200.36 330.344 201.574 331.791 202.425L488.503 294.51L490.293 299.998L496.801 297.131C497.117 297.022 497.422 296.886 497.714 296.725C498.571 296.247 499.284 295.548 499.778 294.701C500.272 293.854 500.529 292.89 500.523 291.91V141.783C500.524 138.828 499.753 135.925 498.286 133.359C496.819 130.793 494.707 128.654 492.159 127.154Z" fill="#525575"/>
<path d="M486.053 129.891L330.725 38.6199C329.737 38.0394 328.614 37.7299 327.468 37.7228C326.322 37.7157 325.195 38.0112 324.2 38.5794C323.206 39.1476 322.379 39.9683 321.804 40.9583C321.229 41.9484 320.927 43.0726 320.927 44.2171V196.85C320.927 198.529 321.365 200.178 322.2 201.634C323.034 203.091 324.235 204.305 325.683 205.155L486.08 299.407C486.922 299.901 487.88 300.165 488.856 300.171C489.832 300.176 490.793 299.924 491.64 299.44C492.488 298.956 493.192 298.256 493.682 297.413C494.172 296.569 494.43 295.611 494.43 294.636V144.52C494.43 141.564 493.657 138.66 492.188 136.094C490.718 133.528 488.604 131.39 486.053 129.891Z" fill="#2D2F4F"/>
<path d="M489.195 144.513V282.013C489.2 282.052 489.196 282.091 489.182 282.127C489.169 282.164 489.146 282.197 489.117 282.223C489.056 282.284 488.975 282.321 488.889 282.328C488.837 282.326 488.786 282.307 488.745 282.275L328.343 188.025C327.68 187.637 327.131 187.082 326.751 186.415C326.37 185.748 326.171 184.993 326.174 184.225V44.2167C326.169 43.9919 326.225 43.7699 326.336 43.5741C326.447 43.3783 326.608 43.2158 326.803 43.1037C326.999 42.9915 327.22 42.9338 327.445 42.9366C327.67 42.9394 327.891 43.0026 328.083 43.1196L483.411 134.391C485.17 135.434 486.628 136.915 487.641 138.689C488.655 140.463 489.191 142.47 489.195 144.513Z" fill="url(#paint2_linear_284_2223)"/>
<path d="M489.195 144.513V153.03L326.165 59.3297V44.2167C326.161 43.9919 326.217 43.7699 326.327 43.5741C326.438 43.3783 326.599 43.2158 326.795 43.1037C326.99 42.9915 327.211 42.9338 327.437 42.9366C327.662 42.9394 327.882 43.0026 328.074 43.1196L483.403 134.391C485.163 135.432 486.622 136.913 487.638 138.687C488.653 140.462 489.19 142.469 489.195 144.513Z" fill="url(#paint3_linear_284_2223)"/>
<path d="M484.886 226.328L395.421 174.908V105.098L484.886 156.517V226.328Z" fill="#FCFFFF"/>
<path d="M354.133 112.896L329.085 98.4995V67.5186L354.133 81.9131V112.896Z" fill="#6C00FF"/>
<path d="M383.409 130.315L358.36 115.918V84.9346L383.409 99.3314V130.315Z" fill="#6C00FF"/>
<path d="M417.17 175.458L409.27 170.917V155.938L417.17 160.48V175.458Z" fill="#00BDAA"/>
<path d="M430.637 183.144L422.736 178.603V155.445L430.637 159.984V183.144Z" fill="#00BDAA"/>
<path d="M444.103 190.831L436.203 186.292V152.248L444.103 156.789V190.831Z" fill="#00BDAA"/>
<path d="M457.571 198.517L449.671 193.979V145.807L457.571 150.348V198.517Z" fill="#00BDAA"/>
<path d="M471.036 206.206L463.138 201.665V167.623L471.036 172.162V206.206Z" fill="#00BDAA"/>
<path d="M476.938 236.594L424.472 205.835C423.517 205.273 422.736 204.033 422.736 203.079C422.736 202.126 423.517 201.804 424.472 202.368L476.938 233.127C477.893 233.688 478.673 234.929 478.673 235.883C478.673 236.836 477.902 237.155 476.938 236.594Z" fill="#A1A3AF"/>
<path d="M476.938 245.964L400.175 200.791C399.22 200.23 398.439 198.992 398.439 198.038C398.439 197.083 399.22 196.763 400.175 197.325L476.938 242.497C477.893 243.058 478.673 244.297 478.673 245.25C478.673 246.203 477.902 246.525 476.938 245.964Z" fill="#A1A3AF"/>
<path d="M476.938 255.332L400.175 210.17C399.22 209.607 398.439 208.369 398.439 207.415C398.439 206.462 399.22 206.14 400.175 206.704L476.938 251.865C477.893 252.426 478.673 253.667 478.673 254.62C478.673 255.573 477.902 255.893 476.938 255.332Z" fill="#A1A3AF"/>
<path d="M435.336 240.339L400.173 219.529C399.218 218.968 398.438 217.727 398.438 216.774C398.438 215.82 399.218 215.501 400.173 216.062L435.336 236.873C436.291 237.434 437.072 238.672 437.072 239.626C437.072 240.579 436.291 240.901 435.336 240.339Z" fill="#A1A3AF"/>
<path d="M371.124 130.315L273.445 73.6738V163.41L368.416 221.663L371.124 220.051V130.315Z" fill="#2D2F4F"/>
<path d="M368.416 131.926L270.739 75.2852V165.024L368.416 221.664V131.926Z" fill="url(#paint4_linear_284_2223)"/>
<path d="M270.739 75.2852L368.416 131.926V144.29L270.739 87.6497V75.2852Z" fill="url(#paint5_linear_284_2223)"/>
<g opacity="0.56">
<path d="M315.312 142.874L278.763 121.498C278.265 121.206 277.85 120.563 277.85 120.068C277.85 119.571 278.256 119.404 278.763 119.694L315.312 141.07C315.808 141.362 316.226 142.005 316.226 142.5C316.214 142.998 315.808 143.164 315.312 142.874Z" fill="#FCFFFF"/>
<path d="M315.312 136.437L278.763 115.061C278.265 114.769 277.85 114.126 277.85 113.631C277.85 113.136 278.256 112.967 278.763 113.257L315.312 134.633C315.808 134.925 316.226 135.568 316.226 136.063C316.214 136.561 315.808 136.727 315.312 136.437Z" fill="#FCFFFF"/>
<path d="M315.312 148.104L278.763 126.728C278.265 126.436 277.85 125.793 277.85 125.298C277.85 124.8 278.256 124.634 278.763 124.924L315.312 146.3C315.808 146.592 316.226 147.235 316.226 147.73C316.214 148.225 315.808 148.394 315.312 148.104Z" fill="#FCFFFF"/>
</g>
<path d="M301.96 169.434L281.031 157.537C279.286 156.545 277.859 154.307 277.859 152.565C277.859 150.822 279.286 150.209 281.031 151.196L301.96 163.096C303.704 164.088 305.131 166.325 305.131 168.068C305.131 169.813 303.704 170.426 301.96 169.434Z" fill="#2D2F4F"/>
<path d="M371.124 130.315L368.416 131.925L270.739 75.2841L273.445 73.6738L371.124 130.315Z" fill="#6C00FF"/>
<path d="M368.416 144.29L371.124 142.509V130.315L368.416 131.926V144.29Z" fill="#6C00FF"/>
<path d="M358.065 135.974L260.387 79.333V169.071L355.357 227.325L358.065 225.712V135.974Z" fill="#2D2F4F"/>
<path d="M355.358 137.587L257.682 80.9463V170.685L355.358 227.325V137.587Z" fill="url(#paint6_linear_284_2223)"/>
<path d="M257.682 80.9463L355.358 137.587V149.952L257.682 93.3109V80.9463Z" fill="url(#paint7_linear_284_2223)"/>
<g opacity="0.56">
<path d="M302.254 148.535L265.704 127.156C265.207 126.866 264.791 126.223 264.791 125.728C264.791 125.231 265.197 125.065 265.704 125.354L302.254 146.73C302.507 146.882 302.721 147.089 302.879 147.338C303.038 147.586 303.136 147.868 303.167 148.161C303.156 148.655 302.749 148.824 302.254 148.535Z" fill="#FCFFFF"/>
<path d="M302.254 142.098L265.704 120.722C265.207 120.43 264.791 119.787 264.791 119.292C264.791 118.794 265.197 118.628 265.704 118.918L302.254 140.294C302.749 140.586 303.167 141.229 303.167 141.724C303.156 142.219 302.749 142.388 302.254 142.098Z" fill="#FCFFFF"/>
<path d="M302.254 153.764L265.704 132.386C265.207 132.096 264.791 131.453 264.791 130.958C264.791 130.461 265.197 130.292 265.704 130.584L302.254 151.96C302.507 152.111 302.721 152.319 302.879 152.567C303.038 152.815 303.136 153.097 303.167 153.39C303.156 153.885 302.749 154.054 302.254 153.764Z" fill="#FCFFFF"/>
</g>
<path d="M288.904 175.095L267.972 163.196C266.23 162.204 264.801 159.969 264.801 158.226C264.801 156.483 266.23 155.868 267.972 156.858L288.904 168.757C290.648 169.749 292.075 171.987 292.075 173.729C292.075 175.474 290.648 176.083 288.904 175.095Z" fill="#2D2F4F"/>
<path d="M355.357 149.951L358.065 148.169V135.974L355.357 137.586V149.951Z" fill="#6C00FF"/>
<path d="M344.496 143.296L246.819 86.6572V176.393L341.79 234.647L344.496 233.034V143.296Z" fill="#6C00FF"/>
<path d="M341.79 144.908L244.111 88.2676V178.006L341.79 234.647V144.908Z" fill="url(#paint8_linear_284_2223)"/>
<path d="M244.111 88.2676L341.79 144.908V157.273L244.111 100.632V88.2676Z" fill="#2D2F4F"/>
<g opacity="0.56">
<path d="M288.684 155.857L252.135 134.481C251.64 134.189 251.222 133.545 251.222 133.051C251.222 132.553 251.628 132.387 252.135 132.676L288.684 154.053C289.182 154.345 289.598 154.988 289.598 155.483C289.589 155.98 289.182 156.147 288.684 155.857Z" fill="#FCFFFF"/>
<path d="M288.684 149.42L252.135 128.044C251.64 127.752 251.222 127.109 251.222 126.614C251.222 126.117 251.628 125.95 252.135 126.24L288.684 147.616C289.182 147.908 289.598 148.551 289.598 149.046C289.589 149.544 289.182 149.71 288.684 149.42Z" fill="#FCFFFF"/>
<path d="M288.684 161.086L252.135 139.71C251.64 139.418 251.222 138.775 251.222 138.28C251.222 137.783 251.628 137.616 252.135 137.906L288.684 159.282C289.182 159.572 289.598 160.217 289.598 160.712C289.589 161.207 289.182 161.376 288.684 161.086Z" fill="#FCFFFF"/>
</g>
<g opacity="0.56">
<path d="M334.193 211.37L297.644 189.996C297.391 189.845 297.176 189.637 297.018 189.389C296.859 189.141 296.761 188.859 296.73 188.566C296.73 188.071 297.137 187.902 297.644 188.194L334.193 209.57C334.446 209.722 334.66 209.929 334.819 210.178C334.977 210.426 335.076 210.708 335.106 211.001C335.095 211.491 334.689 211.664 334.193 211.37Z" fill="#FCFFFF"/>
<path d="M334.193 204.933L297.644 183.555C297.146 183.265 296.73 182.622 296.73 182.127C296.73 181.629 297.137 181.461 297.644 181.753L334.193 203.129C334.446 203.28 334.66 203.488 334.819 203.736C334.977 203.984 335.076 204.266 335.106 204.559C335.095 205.049 334.689 205.223 334.193 204.933Z" fill="#FCFFFF"/>
<path d="M334.193 216.598L297.644 195.221C297.391 195.07 297.176 194.862 297.018 194.614C296.859 194.366 296.761 194.084 296.73 193.791C296.73 193.296 297.137 193.127 297.644 193.417L334.193 214.796C334.446 214.947 334.66 215.155 334.819 215.403C334.977 215.651 335.076 215.933 335.106 216.226C335.095 216.721 334.689 216.89 334.193 216.598Z" fill="#FCFFFF"/>
</g>
<path d="M275.333 182.417L254.404 170.517C252.66 169.527 251.232 167.29 251.232 165.547C251.232 163.805 252.66 163.191 254.404 164.179L275.333 176.083C277.077 177.075 278.505 179.312 278.505 181.055C278.505 182.795 277.077 183.409 275.333 182.417Z" fill="#2D2F4F"/>
<path d="M337.638 195.342L296.739 171.836V139.922L337.638 163.428V195.342Z" fill="#FCFFFF"/>
<path d="M299.229 169.961V144.659L335.15 165.303V190.605L299.229 169.961Z" fill="#DADBE0"/>
<path d="M299.229 163.707L306.937 158.985L315.358 172.759L325.293 163.871L335.15 181.746V190.605L299.229 169.961V163.707Z" fill="url(#paint9_linear_284_2223)"/>
<path d="M251.464 99.1902C251.516 99.7536 251.071 99.927 250.468 99.5757C249.865 99.2245 249.327 98.4832 249.283 97.9198C249.24 97.3564 249.676 97.1831 250.279 97.5343C250.882 97.8856 251.411 98.6246 251.464 99.1902Z" fill="#FCFFFF"/>
<path d="M255.663 101.98C255.715 102.545 255.27 102.719 254.669 102.367C254.069 102.016 253.528 101.275 253.484 100.711C253.441 100.148 253.877 99.9747 254.48 100.324C255.083 100.673 255.61 101.416 255.663 101.98Z" fill="#089299"/>
<path d="M259.864 104.772C259.916 105.337 259.471 105.508 258.871 105.159C258.27 104.81 257.729 104.067 257.686 103.503C257.642 102.94 258.078 102.767 258.679 103.116C259.279 103.465 259.811 104.208 259.864 104.772Z" fill="#DADBE0"/>
<path d="M267.079 105.34L315.917 133.661V138.688L267.079 110.369V105.34Z" fill="#DADBE0"/>
<path d="M344.496 143.296L341.79 144.908L244.111 88.2675L246.819 86.6572L344.496 143.296Z" fill="#525575"/>
<path d="M341.79 157.272L344.496 155.491V143.295L341.79 144.907V157.272Z" fill="#25283F"/>
<path d="M467.558 287.542L465.407 339.482V375.004C465.407 375.004 463.934 378.599 468.999 379.869C474.063 381.14 478.719 377.755 478.719 377.755C478.719 377.755 482.952 364.432 483.165 356.609C483.377 348.785 480.196 342.442 480.196 342.442L490.617 296.982L467.558 287.542Z" fill="#1D2035"/>
<path d="M509.345 296.538C509.345 296.538 512.588 304.806 511.106 310.515C509.624 316.224 507.72 319.395 507.72 319.395L505.178 350.478C505.178 350.478 508.743 359.146 508.336 372.046C508.09 379.835 507.39 387.603 506.238 395.311C506.238 395.311 502.427 397.213 497.561 395.311C492.695 393.409 491.967 390.024 491.967 390.024C491.967 390.024 488.46 354.269 488.035 346.35C487.61 338.431 484.133 301.063 484.133 301.063L509.345 296.538Z" fill="#2D2F4F"/>
<path d="M477.388 214.976L450.55 238.181L460.912 250.758L477.388 241.751V214.976Z" fill="url(#paint10_linear_284_2223)"/>
<path d="M477.388 214.976C481.384 214.36 514.835 235.932 514.591 237.18C514.346 238.428 509.971 283.199 509.72 288.933C509.469 294.667 509.346 296.537 509.346 296.537C509.346 296.537 502.105 306.888 485.503 301.53C468.901 296.172 466.654 285.069 466.654 285.069C466.654 285.069 470.938 224.834 471.543 221.472C472.148 218.11 477.388 214.976 477.388 214.976Z" fill="url(#paint11_linear_284_2223)"/>
<path d="M484.964 193.959C484.964 193.959 481.68 202.3 481.311 205.39C480.941 208.481 481.58 217.844 483.096 219.397C484.612 220.95 487.206 221.101 487.206 221.101L485.544 226.413C485.544 226.413 484.329 230.133 490.832 232.537C497.335 234.941 503.05 228.391 503.05 228.391C503.05 228.391 502.593 222.688 504.445 217.543C506.297 212.397 509.261 199.136 504.26 195.418C499.26 191.701 484.964 193.959 484.964 193.959Z" fill="#FFBDBD"/>
<path d="M489.282 197.915C495.732 200.689 499.648 199.74 499.648 199.74C499.648 199.74 497.063 202.108 498.474 204.329C499.886 206.551 497.038 213.136 498.018 213.453C498.997 213.77 500.577 207.541 503.475 208.512C506.372 209.484 504.968 210.873 503.916 213.165C502.863 215.458 501.708 216.792 503.808 218.142C505.909 219.492 512.862 214.634 514.839 208.271C516.816 201.907 513.357 198.581 513.357 198.581C513.357 198.581 517.632 190.952 505.872 187.715C494.113 184.479 488.987 185.85 486.402 182.745C483.818 179.641 475.949 192.184 489.282 197.915Z" fill="#2D2F4F"/>
<path d="M487.053 220.955C487.053 220.955 491.241 222.052 493.704 220.382C496.168 218.713 496.901 218.279 496.901 218.279C495.71 220.064 494.257 221.66 492.592 223.014C489.793 225.295 489.565 231.999 489.565 231.999C489.565 231.999 484.653 230.352 485.455 227.236C486.256 224.121 487.053 220.955 487.053 220.955Z" fill="#EAA2A2"/>
<path d="M492.07 206.393C492.031 206.547 492.039 206.709 492.092 206.858C492.146 207.008 492.242 207.138 492.369 207.233C492.497 207.328 492.649 207.383 492.808 207.391C492.966 207.399 493.124 207.36 493.26 207.279C493.397 207.198 493.506 207.078 493.575 206.935C493.643 206.792 493.668 206.632 493.645 206.475C493.623 206.318 493.554 206.171 493.448 206.053C493.342 205.935 493.204 205.851 493.05 205.811C492.947 205.785 492.84 205.779 492.736 205.794C492.631 205.809 492.53 205.845 492.439 205.899C492.348 205.953 492.269 206.024 492.205 206.109C492.142 206.194 492.096 206.29 492.07 206.393Z" fill="#2D2F4F"/>
<path d="M483.128 203.107C483.088 203.261 483.095 203.424 483.148 203.574C483.201 203.724 483.297 203.856 483.425 203.951C483.552 204.047 483.705 204.103 483.864 204.112C484.024 204.12 484.182 204.082 484.319 204C484.456 203.919 484.566 203.799 484.635 203.656C484.704 203.512 484.729 203.351 484.706 203.193C484.684 203.036 484.615 202.888 484.508 202.77C484.402 202.651 484.262 202.567 484.108 202.527C484.005 202.501 483.899 202.495 483.794 202.51C483.689 202.525 483.588 202.56 483.497 202.614C483.406 202.668 483.327 202.739 483.264 202.824C483.2 202.908 483.154 203.004 483.128 203.107Z" fill="#2D2F4F"/>
<path d="M490.864 214.356C490.864 214.356 487.426 214.926 485.48 213.947C483.535 212.969 483.055 211.63 483.055 211.63C483.055 211.63 482.749 214.326 485.186 215.617C487.622 216.908 490.864 214.356 490.864 214.356Z" fill="white"/>
<path d="M484.925 210.48L485.012 210.501C486.51 210.838 487.019 211.012 487.022 211.014L487.154 210.638C487.133 210.638 486.627 210.455 485.099 210.111C484.743 210.031 484.309 209.865 484.243 209.518C484.17 209.132 484.574 208.58 485.273 208.111C486.624 207.198 487.264 205.104 487.289 205.015L486.905 204.901C486.905 204.922 486.282 206.954 485.049 207.78C484.195 208.357 483.745 209.034 483.85 209.593C483.909 209.89 484.142 210.28 484.925 210.48Z" fill="#DD9292"/>
<path d="M490.359 206.617C490.183 207.346 490.227 208.112 490.485 208.817C490.744 209.521 491.207 210.133 491.814 210.576C492.421 211.018 493.145 211.271 493.896 211.301C494.647 211.332 495.39 211.14 496.032 210.749C496.673 210.358 497.184 209.786 497.5 209.105C497.816 208.424 497.922 207.664 497.806 206.923C497.69 206.181 497.356 205.491 496.847 204.938C496.338 204.386 495.677 203.997 494.947 203.82C494.462 203.703 493.958 203.682 493.465 203.759C492.972 203.837 492.499 204.01 492.073 204.269C491.647 204.529 491.277 204.87 490.983 205.273C490.689 205.676 490.477 206.132 490.359 206.617Z" stroke="#2D2F4F" stroke-width="2.7345" stroke-miterlimit="10"/>
<path d="M480.053 202.418C479.876 203.147 479.92 203.913 480.179 204.617C480.438 205.322 480.9 205.934 481.507 206.377C482.114 206.819 482.839 207.071 483.59 207.102C484.34 207.133 485.084 206.941 485.725 206.55C486.366 206.159 486.877 205.587 487.193 204.905C487.509 204.224 487.616 203.465 487.5 202.723C487.383 201.982 487.05 201.291 486.541 200.739C486.032 200.187 485.37 199.798 484.64 199.621C484.155 199.504 483.652 199.483 483.159 199.56C482.666 199.637 482.193 199.811 481.767 200.07C481.341 200.33 480.97 200.671 480.676 201.074C480.382 201.476 480.17 201.933 480.053 202.418Z" stroke="#2D2F4F" stroke-width="2.7345" stroke-miterlimit="10"/>
<path d="M490.999 205.248C490.999 205.248 489.955 202.477 487.544 203.335" stroke="#2D2F4F" stroke-width="2.7345" stroke-miterlimit="10"/>
<path d="M463.586 209.025L366.254 152.585V242.006L460.889 300.052L463.586 298.446V209.025Z" fill="#A5A7AD"/>
<path d="M460.889 210.633L363.557 154.193L363.555 243.612L460.889 300.052V210.633Z" fill="#FCFFFF"/>
<path d="M363.557 154.193L460.888 210.633V222.955L363.557 166.512V154.193Z" fill="#6C00FF"/>
<path d="M407.97 221.543L371.551 200.24C371.301 200.088 371.089 199.881 370.933 199.634C370.777 199.387 370.681 199.107 370.651 198.817C370.651 198.322 371.056 198.155 371.551 198.443L407.97 219.746C408.466 220.035 408.87 220.676 408.87 221.169C408.87 221.664 408.466 221.83 407.97 221.543Z" fill="#DADBE0"/>
<path d="M407.97 215.128L371.551 193.825C371.301 193.674 371.089 193.467 370.933 193.22C370.777 192.973 370.68 192.693 370.651 192.402C370.651 191.907 371.056 191.74 371.551 192.03L407.97 213.331C408.466 213.621 408.87 214.262 408.87 214.754C408.87 215.249 408.466 215.416 407.97 215.128Z" fill="#DADBE0"/>
<path d="M407.97 226.752L371.551 205.451C371.056 205.161 370.651 204.52 370.651 204.028C370.651 203.533 371.056 203.364 371.551 203.653L407.97 224.954C408.22 225.106 408.432 225.314 408.588 225.561C408.744 225.809 408.841 226.089 408.87 226.38C408.87 226.875 408.466 227.041 407.97 226.752Z" fill="#DADBE0"/>
<path d="M453.317 276.858L416.898 255.557C416.647 255.405 416.436 255.198 416.28 254.95C416.124 254.703 416.027 254.423 415.998 254.132C415.998 253.639 416.402 253.47 416.898 253.76L453.317 275.061C453.567 275.213 453.779 275.421 453.935 275.668C454.091 275.915 454.187 276.196 454.216 276.487C454.216 276.979 453.812 277.148 453.317 276.858Z" fill="#DADBE0"/>
<path d="M453.317 270.444L416.898 249.143C416.647 248.991 416.436 248.784 416.28 248.536C416.124 248.289 416.027 248.009 415.998 247.718C415.998 247.225 416.402 247.056 416.898 247.346L453.317 268.647C453.567 268.799 453.779 269.007 453.935 269.254C454.091 269.501 454.187 269.782 454.216 270.072C454.216 270.567 453.812 270.738 453.317 270.444Z" fill="#DADBE0"/>
<path d="M453.317 282.07L416.898 260.769C416.647 260.617 416.436 260.409 416.28 260.162C416.124 259.914 416.027 259.634 415.998 259.343C415.998 258.848 416.402 258.682 416.898 258.971L453.317 280.272C453.567 280.424 453.779 280.632 453.935 280.879C454.091 281.127 454.187 281.407 454.216 281.698C454.216 282.191 453.812 282.371 453.317 282.07Z" fill="#DADBE0"/>
<path d="M394.667 248.01L373.811 236.149C372.074 235.162 370.651 232.933 370.651 231.195C370.651 229.459 372.074 228.848 373.811 229.827L394.667 241.687C396.405 242.677 397.828 244.905 397.828 246.641C397.828 248.386 396.405 248.997 394.667 248.01Z" fill="#2D2F4F"/>
<path d="M456.751 260.888L415.998 237.466V205.666L456.751 229.088V260.888Z" fill="#6C00FF"/>
<path d="M418.478 235.597V210.385L454.271 230.956V256.169L418.478 235.597Z" fill="url(#paint12_linear_284_2223)"/>
<path d="M418.478 229.367L426.159 224.661L434.55 238.385L444.45 229.529L454.271 247.34V256.169L418.478 235.598V229.367Z" fill="url(#paint13_linear_284_2223)"/>
<path d="M370.88 165.075C370.933 165.639 370.49 165.81 369.889 165.461C369.289 165.112 368.761 164.373 368.711 163.812C368.661 163.251 369.101 163.077 369.7 163.426C370.298 163.775 370.828 164.514 370.88 165.075Z" fill="#FCFFFF"/>
<path d="M379.262 170.638C379.314 171.199 378.869 171.373 378.271 171.024C377.672 170.675 377.143 169.936 377.09 169.372C377.038 168.809 377.481 168.638 378.081 168.989C378.682 169.34 379.2 170.077 379.262 170.638Z" fill="#DADBE0"/>
<path d="M386.44 171.204L435.107 199.425V204.436L386.44 176.215V171.204Z" fill="url(#paint14_linear_284_2223)"/>
<path d="M463.585 209.025L460.888 210.633L363.557 154.193L366.253 152.585L463.585 209.025Z" fill="#6C00FF"/>
<path d="M460.889 222.955L463.585 221.18V209.025L460.889 210.633V222.955Z" fill="#6C00FF"/>
<path d="M514.59 237.18C510.937 236.436 507.041 241.461 504.982 250.028C502.922 258.595 501.1 268.53 499.502 268.987C497.903 269.443 466.66 254.252 466.66 254.252C466.66 254.252 467.601 257.566 466.001 259.726C464.4 261.886 463.512 262.354 463.512 262.354C463.512 262.354 499.958 290.678 507.847 286.223C515.736 281.769 522.253 246.935 519.967 242.595C517.682 238.254 514.59 237.18 514.59 237.18Z" fill="url(#paint15_linear_284_2223)"/>
<path d="M466.894 255.685C466.894 255.685 465.524 252.782 464.594 251.538C463.665 250.295 460.911 248.897 460.911 248.897C460.77 249.188 460.696 249.506 460.696 249.829C460.696 250.152 460.77 250.47 460.911 250.761C461.404 251.726 461.955 252.049 461.955 252.049C461.955 252.049 455.059 248.261 454.118 248.897C453.178 249.534 459.617 252.989 459.617 252.989C459.617 252.989 453.6 250.295 452.563 250.503C451.527 250.711 459.096 254.697 459.096 254.697C459.096 254.697 452.73 252.524 452.474 252.989C452.219 253.454 458.587 256.41 458.587 256.41C458.587 256.41 453.817 254.246 453.246 255.042C452.675 255.838 458.199 257.955 459.224 258.814C460.249 259.674 463.978 262.026 463.978 262.026C463.978 262.026 468.378 260.297 466.894 255.685Z" fill="#FFBDBD"/>
<path d="M426.401 326.649C426.401 315.53 417.378 301.117 406.247 294.455C400.538 291.034 395.369 290.329 391.699 291.946H391.679C391.284 292.122 390.902 292.327 390.537 292.559L383.852 296.161L386.308 299.703C386.161 300.63 386.089 301.568 386.092 302.506C386.092 313.623 395.115 328.036 406.244 334.698C408.193 335.889 410.295 336.81 412.491 337.436L414.546 340.385L420.134 337.477C420.944 337.195 421.707 336.795 422.399 336.288C424.929 334.429 426.401 331.156 426.401 326.649Z" fill="#00BDAA"/>
<path d="M416.486 339.345C423.132 334.404 421.281 320.685 412.353 308.702C403.424 296.72 390.8 291.011 384.154 295.952C377.509 300.892 379.36 314.611 388.288 326.594C397.216 338.577 409.841 344.285 416.486 339.345Z" fill="url(#paint16_linear_284_2223)"/>
<path d="M391.251 309.675L397.647 328.795L415.801 321.996L414.221 318.447L400.32 323.178L394.489 308.689L391.251 309.675Z" fill="#FFFFFD"/>
<path d="M330.96 239.555C330.96 239.555 332.035 240.657 331.75 243.332C331.464 246.008 329.967 251.653 328.361 252.668C326.756 253.683 323.324 253.518 323.324 253.518L321.61 266.278L304.389 253.361L307.67 239.256C307.67 239.256 323.653 235.192 323.881 235.196C324.11 235.201 330.96 239.555 330.96 239.555Z" fill="#FFBDBD"/>
<path d="M319.299 423.417C319.299 423.417 319.11 427.468 319.299 428.351C319.489 429.234 325.681 433.173 328.661 431.567C331.64 429.961 349.667 420.557 349.818 418.226C349.969 415.895 347.245 412.36 343.865 412.602C340.486 412.843 326.969 417.391 326.969 417.391L319.299 423.417Z" fill="#1D2035"/>
<path d="M296.955 407.388C296.955 407.388 295.674 413.647 296.158 414.128C296.642 414.609 301.866 418.067 303.558 417.262C305.25 416.457 317.487 405.207 317.487 402.879C317.487 400.55 314.429 398.458 310.408 400.548C306.387 402.637 296.955 407.388 296.955 407.388Z" fill="#1D2035"/>
<path d="M300.03 323.816C300.03 323.816 295.162 328.394 297.596 336.833C300.03 345.273 300.03 346.276 300.03 346.276V368.588C300.03 368.588 296.605 375.309 295.876 385.037C295.148 394.765 295.876 406.067 295.876 406.067C296.431 406.956 297.186 407.705 298.081 408.251C298.976 408.798 299.987 409.127 301.032 409.214C304.612 409.499 308.193 406.495 308.193 406.495C308.193 406.495 309.334 382.749 312.919 373.021C316.504 363.294 320.938 329.685 320.938 329.685L300.03 323.816Z" fill="#1D2035"/>
<path d="M302.964 194.088L387.475 243.095V264.106L302.964 215.099V194.088Z" fill="url(#paint17_linear_284_2223)"/>
<path d="M389.817 241.699L387.475 243.095L302.964 194.088L305.304 192.692L389.817 241.699Z" fill="url(#paint18_linear_284_2223)"/>
<path d="M387.475 264.106L389.817 262.567V241.699L387.475 243.095V264.106Z" fill="url(#paint19_linear_284_2223)"/>
<path d="M315.717 206.713L317.34 210.946L320.973 213.59L318.345 214.618L318.966 218.594L315.717 214.995L312.467 214.808L313.088 211.555L310.458 207.466L314.091 209.053L315.717 206.713Z" fill="#FCFFFF"/>
<path d="M330.534 215.344L332.159 219.577L335.792 222.221L333.164 223.249L333.783 227.225L330.534 223.626L327.284 223.439L327.905 220.186L325.277 216.096L328.91 217.684L330.534 215.344Z" fill="#FCFFFF"/>
<path d="M345.352 223.972L346.976 228.207L350.609 230.851L347.98 231.879L348.601 235.855L345.352 232.256L342.103 232.069L342.722 228.816L340.094 224.727L343.727 226.314L345.352 223.972Z" fill="#FCFFFF"/>
<path d="M360.168 232.603L361.792 236.838L365.425 239.482L362.796 240.508L363.418 244.484L360.168 240.887L356.919 240.7L357.54 237.447L354.912 233.358L358.545 234.945L360.168 232.603Z" fill="#FCFFFF"/>
<path d="M374.985 241.233L376.61 245.469L380.243 248.11L377.615 249.139L378.234 253.114L374.985 249.515L371.736 249.33L372.357 246.078L369.729 241.986L373.361 243.576L374.985 241.233Z" fill="#FCFFFF"/>
<path d="M309.186 255.398C309.186 255.398 322.29 260.509 324.537 262.012C326.784 263.515 328.03 268.12 328.03 268.12C328.03 268.12 337.938 269.742 337.849 277.095C337.76 284.449 339.011 332.064 339.011 332.064C339.011 332.064 334.394 338.298 315.924 335.057C297.454 331.816 299.075 321.467 299.075 321.467C299.075 321.467 299.575 301.273 297.329 293.296C295.082 285.32 287.844 267.242 289.337 260.012C290.83 252.781 299.196 253.279 301.566 254.152C303.936 255.026 309.186 255.398 309.186 255.398Z" fill="url(#paint20_linear_284_2223)"/>
<path d="M336.753 273.159C331.776 273.35 323.282 283.448 334.895 288.185C346.508 292.922 363.224 289.93 363.973 288.808C364.722 287.685 379.198 262.121 379.198 262.121C379.198 262.121 378.572 258.755 374.456 257.01C370.339 255.265 368.715 256.136 368.715 256.136C368.715 256.136 359.354 275.957 356.984 275.957C354.613 275.957 336.753 273.159 336.753 273.159Z" fill="#38ACA8"/>
<path d="M308.25 332.913C308.25 332.913 307.464 339.933 311.38 345.624C315.296 351.315 318.324 353.803 318.324 353.803L320.941 377.273C320.941 377.273 318.324 388.299 318.324 398.789V421.732C318.324 421.732 319.568 425.822 324.909 425.822C330.25 425.822 333.631 421.198 333.631 421.198C333.631 421.198 332.563 388.306 336.479 378.17C340.395 368.034 339.016 332.071 339.016 332.071C339.016 332.071 324.521 339.051 308.25 332.913Z" fill="#2D2F4F"/>
<path d="M333.312 227.323C337.79 235.116 333.901 240.232 329.287 242.342C324.672 244.452 323.7 245.166 323.7 245.166C323.7 245.166 325.449 240.485 321.722 239.235C317.996 237.986 321.158 245.597 318.599 247.504C316.942 248.698 314.946 249.329 312.903 249.304C310.86 249.278 308.88 248.596 307.255 247.36C303.191 244.304 300.608 229.2 306.102 224.323C311.596 219.447 327.383 216.999 333.312 227.323Z" fill="#1D2035"/>
<path d="M310.938 223.783C310.938 223.783 314.029 224.544 314.164 229.61C314.299 234.676 309.81 236.428 309.81 236.428L307.755 236.4C307.755 236.4 311.006 246.45 308.472 255.943C305.937 265.436 287.714 265.201 287.714 265.201C287.714 265.201 296.594 259.768 296.594 250.375C296.594 240.983 294.082 229.847 298.612 224.72C303.142 219.593 310.938 223.783 310.938 223.783Z" fill="#1D2035"/>
<path d="M371.448 256.073C371.448 256.073 371.492 254.16 372.818 251.356C373.649 249.634 374.708 248.03 375.965 246.587C375.965 246.587 378.248 246.279 377.145 249.301L376.042 252.326C376.042 252.326 380.406 244.703 381.449 245.483C382.493 246.263 379.976 250.729 379.976 250.729C379.976 250.729 382.975 244.459 383.755 245.009C384.536 245.558 380.607 253.261 380.607 253.261C380.607 253.261 384.068 247.445 384.854 247.917C385.639 248.389 382.844 255.305 381.449 256.954C380.054 258.603 378.522 260.498 378.522 260.498C378.522 260.498 375.652 256.826 371.448 256.073Z" fill="#FFBDBD"/>
<path d="M281.464 216.845L196.951 167.838V245.481L279.121 295.883L281.464 294.487V216.845Z" fill="#A5A7AD"/>
<path d="M279.121 218.24L194.608 169.233V246.876L279.121 295.883V218.24Z" fill="#FCFFFF"/>
<path d="M194.608 169.233L279.121 218.24V228.937L194.608 179.931V169.233Z" fill="#6C00FF"/>
<path d="M233.174 227.711L201.549 209.215C201.332 209.083 201.149 208.903 201.013 208.689C200.878 208.474 200.794 208.231 200.769 207.979C200.769 207.55 201.12 207.404 201.549 207.655L233.174 226.151C233.391 226.283 233.574 226.464 233.709 226.678C233.845 226.893 233.929 227.136 233.955 227.389C233.955 227.818 233.603 227.964 233.174 227.711Z" fill="#DADBE0"/>
<path d="M233.174 222.143L201.549 203.647C201.332 203.516 201.149 203.335 201.013 203.12C200.877 202.905 200.794 202.662 200.769 202.409C200.769 201.98 201.12 201.834 201.549 202.087L233.174 220.583C233.391 220.715 233.574 220.895 233.71 221.109C233.845 221.324 233.929 221.567 233.955 221.819C233.955 222.248 233.603 222.385 233.174 222.143Z" fill="#DADBE0"/>
<path d="M233.174 232.236L201.549 213.741C201.332 213.609 201.149 213.429 201.013 213.214C200.878 213 200.794 212.757 200.769 212.504C200.769 212.076 201.12 211.93 201.549 212.18L233.174 230.676C233.391 230.808 233.575 230.988 233.71 231.203C233.846 231.418 233.929 231.662 233.955 231.914C233.955 232.343 233.603 232.489 233.174 232.236Z" fill="#DADBE0"/>
<path d="M272.548 275.744L240.926 257.248C240.708 257.116 240.524 256.936 240.388 256.721C240.252 256.506 240.168 256.263 240.143 256.01C240.143 255.581 240.494 255.435 240.926 255.688L272.548 274.183C272.765 274.315 272.948 274.495 273.084 274.71C273.219 274.924 273.303 275.167 273.329 275.42C273.329 275.848 272.977 275.985 272.548 275.744Z" fill="#DADBE0"/>
<path d="M272.548 270.174L240.926 251.678C240.708 251.547 240.524 251.367 240.388 251.152C240.252 250.938 240.168 250.694 240.143 250.442C240.143 250.013 240.494 249.867 240.926 250.118L272.548 268.613C272.765 268.745 272.949 268.926 273.084 269.141C273.22 269.356 273.303 269.599 273.329 269.852C273.329 270.283 272.977 270.424 272.548 270.174Z" fill="#DADBE0"/>
<path d="M272.548 280.269L240.926 261.773C240.708 261.641 240.524 261.461 240.388 261.246C240.253 261.031 240.168 260.787 240.143 260.535C240.143 260.106 240.494 259.96 240.926 260.211L272.548 278.709C272.765 278.84 272.948 279.02 273.084 279.235C273.219 279.449 273.303 279.692 273.329 279.945C273.329 280.374 272.977 280.52 272.548 280.269Z" fill="#DADBE0"/>
<path d="M221.623 250.692L203.513 240.403C202.004 239.543 200.773 237.609 200.773 236.101C200.773 234.594 202.009 234.062 203.513 234.92L221.623 245.216C223.132 246.073 224.363 248.008 224.363 249.515C224.367 251.018 223.132 251.55 221.623 250.692Z" fill="#2D2F4F"/>
<path d="M275.53 261.875L240.143 241.537V213.925L275.53 234.263V261.875Z" fill="#6C00FF"/>
<path d="M242.298 239.915V218.023L273.376 235.885V257.777L242.298 239.915Z" fill="#DADBE0"/>
<path d="M242.298 234.505L248.965 230.42L256.254 242.337L264.848 234.646L273.376 250.111V257.777L242.298 239.915V234.505Z" fill="url(#paint21_linear_284_2223)"/>
<path d="M200.967 178.683C201.013 179.171 200.63 179.32 200.109 179.016C199.588 178.713 199.129 178.072 199.084 177.584C199.038 177.096 199.424 176.945 199.942 177.248C200.461 177.552 200.933 178.195 200.967 178.683Z" fill="#FCFFFF"/>
<path d="M204.603 181.101C204.649 181.589 204.263 181.739 203.742 181.436C203.222 181.133 202.763 180.492 202.719 180.004C202.676 179.516 203.057 179.365 203.578 179.668C204.098 179.972 204.557 180.61 204.603 181.101Z" fill="#089299"/>
<path d="M208.24 183.511C208.286 183.999 207.9 184.15 207.379 183.846C206.859 183.543 206.4 182.902 206.354 182.414C206.309 181.926 206.694 181.775 207.215 182.079C207.736 182.382 208.192 183.023 208.24 183.511Z" fill="#DADBE0"/>
<path d="M214.48 184.004L256.736 208.507V212.857L214.48 188.354V184.004Z" fill="#DADBE0"/>
<path d="M281.464 216.845L279.121 218.24L194.608 169.234L196.951 167.838L281.464 216.845Z" fill="white"/>
<path d="M279.122 228.937L281.465 227.395V216.844L279.122 218.24V228.937Z" fill="white"/>
<path d="M217.357 156.515C217.357 156.515 220.805 154.919 227.176 165.762C233.546 176.605 233.672 176.356 237.786 178.471C241.901 180.585 258.613 190.927 258.613 190.927C258.613 190.927 252.002 192.92 250.632 196.401L249.262 199.888C249.262 199.888 233.051 189.549 229.683 187.8C226.315 186.05 220.385 181.869 220.385 181.869L217.357 156.515Z" fill="url(#paint22_linear_284_2223)"/>
<path d="M199.972 332.123C199.972 332.123 208.516 339.867 211.299 341.18C214.083 342.494 216.252 344.659 213.699 347.131C211.146 349.604 206.504 350.687 201.088 348.212C195.672 345.738 193.352 342.494 190.644 341.413C187.936 340.332 186.699 339.789 186.235 338.245C185.772 336.701 186.738 334.796 186.738 334.796C186.738 334.796 199.705 335.35 199.972 332.123Z" fill="#1D2035"/>
<path d="M227.783 317.148C227.783 317.148 232.034 322.248 236.058 324.798C240.081 327.348 241.549 328.431 239.229 330.593C236.909 332.756 233.977 334.227 229.482 332.14C224.986 330.053 220.275 325.648 216.485 324.102C212.694 322.555 212.146 322.558 212.146 320.934C212.146 319.31 214.469 316.372 214.469 316.372L227.783 317.148Z" fill="#1D2035"/>
<path d="M225.496 227.913L227.649 279.862V315.375C227.649 315.375 229.122 318.97 224.057 320.238C218.993 321.506 214.337 318.124 214.337 318.124C214.337 318.124 210.101 304.803 209.891 296.98C209.681 289.157 212.86 282.813 212.86 282.813L202.438 237.351L225.496 227.913Z" fill="#1D2035"/>
<path d="M183.706 236.907C183.706 236.907 180.466 245.175 181.948 250.884C183.429 256.593 185.334 259.766 185.334 259.766L187.875 290.847C187.875 290.847 184.311 299.515 184.717 312.415C184.962 320.204 185.662 327.973 186.816 335.68C186.816 335.68 190.627 337.582 195.492 335.68C200.358 333.778 201.087 330.393 201.087 330.393C201.087 330.393 204.587 294.634 205.021 286.705C205.455 278.777 208.925 241.426 208.925 241.426L183.706 236.907Z" fill="#2D2F4F"/>
<path d="M215.663 155.346C211.67 154.732 175.02 178.565 175.248 179.81C175.476 181.056 183.073 223.571 183.322 229.305C183.571 235.039 183.696 236.907 183.696 236.907C183.696 236.907 190.937 247.258 207.541 241.895C224.146 236.533 226.39 225.437 226.39 225.437C226.39 225.437 222.107 165.206 221.502 161.839C220.897 158.473 215.663 155.346 215.663 155.346Z" fill="url(#paint23_linear_284_2223)"/>
<path d="M210.179 139.646C210.179 139.646 212.377 147.501 212.419 150.334C212.46 153.167 211.014 161.581 209.498 162.849C207.982 164.117 205.616 164.005 205.616 164.005L206.626 168.968C206.626 168.968 207.379 172.451 201.269 174.023C195.159 175.594 190.594 169.133 190.594 169.133C190.594 169.133 191.537 164.021 190.343 159.183C189.149 154.346 187.699 142.077 192.572 139.171C197.444 136.265 210.179 139.646 210.179 139.646Z" fill="#CC8585"/>
<path d="M205.774 163.889C205.774 163.889 201.881 164.494 199.808 162.749C197.734 161.004 197.113 160.548 197.113 160.548C198.025 162.274 199.191 163.854 200.573 165.235C202.892 167.571 202.475 173.651 202.475 173.651C202.475 173.651 207.075 172.616 206.644 169.721L205.774 163.889Z" fill="#9E5C5C"/>
<path d="M202.589 150.243C202.61 150.386 202.589 150.532 202.527 150.664C202.465 150.795 202.365 150.904 202.241 150.979C202.117 151.054 201.973 151.09 201.828 151.083C201.683 151.076 201.544 151.026 201.427 150.939C201.311 150.853 201.222 150.734 201.174 150.598C201.125 150.461 201.118 150.313 201.153 150.173C201.188 150.032 201.265 149.905 201.372 149.808C201.48 149.711 201.614 149.648 201.758 149.627C201.949 149.599 202.145 149.648 202.3 149.763C202.456 149.879 202.56 150.051 202.589 150.243Z" fill="#2D2F4F"/>
<path d="M210.991 148.099C211.012 148.242 210.991 148.389 210.929 148.52C210.867 148.651 210.768 148.76 210.644 148.835C210.519 148.91 210.376 148.946 210.231 148.939C210.086 148.932 209.947 148.882 209.83 148.796C209.714 148.71 209.625 148.591 209.576 148.455C209.527 148.319 209.52 148.171 209.555 148.03C209.59 147.89 209.666 147.763 209.773 147.666C209.88 147.568 210.014 147.505 210.158 147.483C210.35 147.455 210.545 147.504 210.701 147.62C210.858 147.735 210.962 147.907 210.991 148.099Z" fill="#2D2F4F"/>
<path d="M204.249 158.278C205.477 158.319 206.701 158.12 207.852 157.692C209.702 156.987 209.763 157.21 209.763 157.21C209.763 157.21 210.288 158.292 207.962 159.231C205.635 160.171 204.249 158.278 204.249 158.278Z" fill="white"/>
<path d="M208.676 154.606H208.596C207.208 154.773 206.733 154.882 206.728 154.885L206.644 154.531C206.664 154.531 207.139 154.415 208.552 154.246C208.879 154.207 209.29 154.095 209.381 153.79C209.473 153.484 209.169 152.912 208.58 152.421C207.438 151.47 207.059 149.515 207.043 149.433L207.399 149.367C207.399 149.385 207.774 151.276 208.813 152.143C209.534 152.745 209.877 153.4 209.726 153.897C209.651 154.166 209.404 154.499 208.676 154.606Z" fill="#9E5C5C"/>
<path d="M197.114 143.706C197.114 143.706 202.011 146.63 204.678 144.47C207.345 142.31 211.948 143.647 213.197 141.774C214.446 139.901 216.885 133.588 213.197 131.651C209.51 129.715 210.64 125.532 204.025 126.782C197.41 128.032 195.141 126.157 192.796 127.797C190.451 129.437 187.071 128.187 186.377 130.372C185.683 132.557 181.891 132.402 181.559 134.747C181.228 137.091 184.484 140.905 184.484 140.905C184.484 140.905 179.899 143.642 179.587 146.379C179.274 149.116 181.228 150.35 181.228 150.35C181.228 150.35 180.603 152.079 182.167 154.111C183.731 156.143 183.366 153.064 184.484 155.617C185.603 158.169 185.169 159.558 188.119 159.138C191.07 158.718 193.444 158.554 191.245 155.279C189.046 152.004 189.974 149.168 193.031 150.35C196.088 151.531 194.191 155.01 196.737 154.248C199.283 153.486 196.826 149.002 197.351 147.145C197.659 146.005 197.576 144.793 197.114 143.706Z" fill="#2D2F4F"/>
<path d="M180.171 178.572C173.627 177.577 170.945 184.075 174.187 198.027C177.429 211.979 181.918 228.299 186.289 228.548C190.659 228.796 226.404 211.979 226.404 211.979C226.404 211.979 228.151 209.208 226.404 205.253C224.658 201.298 223.45 200.892 223.45 200.892C223.45 200.892 194.269 212.602 192.648 211.854C191.026 211.106 191.52 180.291 180.171 178.572Z" fill="url(#paint24_linear_284_2223)"/>
<path d="M224.961 202.52C224.961 202.52 226.637 197.774 227.845 195.482C229.053 193.189 232.252 191.714 232.252 191.714C232.252 191.714 232.989 193.31 230.857 195.009C228.724 196.709 231.923 195.153 233.562 193.762C235.202 192.371 237.901 188.354 241.435 188.025C244.97 187.697 242.794 188.53 240.23 190.991C237.665 193.452 237.334 194.508 237.334 194.508C237.334 194.508 243.157 188.897 244.223 189.449C245.289 190.001 238.515 195.607 238.515 195.993C238.515 196.378 243.721 192.168 244.344 192.95C244.968 193.732 237.992 199.601 237.992 199.601C237.992 199.601 243.109 195.415 243.792 196.435C244.474 197.455 238.736 202.276 236.521 204.331C234.307 206.386 227.116 209.751 227.116 209.751C227.116 209.751 227.349 205.136 224.961 202.52Z" fill="#CC8585"/>
<path d="M255.277 192.288C255.277 192.288 260.937 198.433 262.736 202.955L264.536 207.481L255.277 202.112C255.277 202.112 254.644 205.779 254.644 208.986C254.648 209.918 254.443 210.84 254.045 211.683C253.647 212.527 253.067 213.271 252.345 213.863C252.345 213.863 251.119 202.65 250.792 200.985C250.466 199.32 250.63 196.407 250.63 196.407C250.63 196.407 252.829 192.012 255.277 192.288Z" fill="#CC8585"/>
</g>
<defs>
<linearGradient id="paint0_linear_284_2223" x1="436.141" y1="457.556" x2="252.29" y2="260.94" gradientUnits="userSpaceOnUse">
<stop stop-color="#DDE0E0"/>
<stop offset="1" stop-color="#F8FBFB"/>
</linearGradient>
<linearGradient id="paint1_linear_284_2223" x1="342.497" y1="327.213" x2="342.497" y2="472.534" gradientUnits="userSpaceOnUse">
<stop stop-color="#DDE0E0"/>
<stop offset="1" stop-color="#FCFFFF"/>
</linearGradient>
<linearGradient id="paint2_linear_284_2223" x1="404.139" y1="107.424" x2="409.488" y2="193.457" gradientUnits="userSpaceOnUse">
<stop stop-color="#F8F8F8"/>
<stop offset="1" stop-color="#C8C7C7"/>
</linearGradient>
<linearGradient id="paint3_linear_284_2223" x1="326.165" y1="97.9835" x2="489.195" y2="97.9835" gradientUnits="userSpaceOnUse">
<stop stop-color="#6C00FF"/>
<stop offset="1" stop-color="#5F637A"/>
</linearGradient>
<linearGradient id="paint4_linear_284_2223" x1="318.708" y1="142.687" x2="327.737" y2="202.948" gradientUnits="userSpaceOnUse">
<stop stop-color="#F8F8F8"/>
<stop offset="1" stop-color="#C8C7C7"/>
</linearGradient>
<linearGradient id="paint5_linear_284_2223" x1="319.577" y1="75.2852" x2="319.577" y2="144.29" gradientUnits="userSpaceOnUse">
<stop stop-color="#6C00FF"/>
<stop offset="1" stop-color="#6C00FF" stop-opacity="0"/>
</linearGradient>
<linearGradient id="paint6_linear_284_2223" x1="306.691" y1="138.812" x2="306.024" y2="198.732" gradientUnits="userSpaceOnUse">
<stop stop-color="#F8F8F8"/>
<stop offset="1" stop-color="#C8C7C7"/>
</linearGradient>
<linearGradient id="paint7_linear_284_2223" x1="257.682" y1="115.449" x2="355.358" y2="115.449" gradientUnits="userSpaceOnUse">
<stop stop-color="#6C00FF"/>
<stop offset="1" stop-color="#5F637A"/>
</linearGradient>
<linearGradient id="paint8_linear_284_2223" x1="244.111" y1="161.458" x2="341.79" y2="161.458" gradientUnits="userSpaceOnUse">
<stop stop-color="#6C00FF"/>
<stop offset="1" stop-color="#AAA9A9"/>
</linearGradient>
<linearGradient id="paint9_linear_284_2223" x1="299.229" y1="174.796" x2="335.15" y2="174.796" gradientUnits="userSpaceOnUse">
<stop stop-color="#6C00FF"/>
<stop offset="1" stop-color="#5F637A"/>
</linearGradient>
<linearGradient id="paint10_linear_284_2223" x1="463.38" y1="225.059" x2="470.837" y2="244.322" gradientUnits="userSpaceOnUse">
<stop stop-color="#6C00FF"/>
<stop offset="0.99" stop-color="#38ACA8"/>
</linearGradient>
<linearGradient id="paint11_linear_284_2223" x1="469.056" y1="255.735" x2="509.819" y2="264.208" gradientUnits="userSpaceOnUse">
<stop stop-color="#38ACA8"/>
<stop offset="1" stop-color="#6C00FF"/>
</linearGradient>
<linearGradient id="paint12_linear_284_2223" x1="418.478" y1="233.276" x2="454.271" y2="233.276" gradientUnits="userSpaceOnUse">
<stop stop-color="#DDE0E0"/>
<stop offset="1" stop-color="#FCFFFF"/>
</linearGradient>
<linearGradient id="paint13_linear_284_2223" x1="436.374" y1="224.661" x2="436.374" y2="256.169" gradientUnits="userSpaceOnUse">
<stop stop-color="#6C00FF"/>
<stop offset="1" stop-color="#6C00FF" stop-opacity="0"/>
</linearGradient>
<linearGradient id="paint14_linear_284_2223" x1="386.443" y1="187.82" x2="435.107" y2="187.82" gradientUnits="userSpaceOnUse">
<stop stop-color="#DDE0E0"/>
<stop offset="1" stop-color="#FCFFFF"/>
</linearGradient>
<linearGradient id="paint15_linear_284_2223" x1="491.761" y1="252.539" x2="505.549" y2="279.477" gradientUnits="userSpaceOnUse">
<stop stop-color="#38ACA8"/>
<stop offset="0.99" stop-color="#6C00FF"/>
</linearGradient>
<linearGradient id="paint16_linear_284_2223" x1="380.171" y1="317.643" x2="420.477" y2="317.643" gradientUnits="userSpaceOnUse">
<stop stop-color="#6C00FF"/>
<stop offset="1" stop-color="#5F637A"/>
</linearGradient>
<linearGradient id="paint17_linear_284_2223" x1="302.964" y1="229.097" x2="387.477" y2="229.097" gradientUnits="userSpaceOnUse">
<stop stop-color="#6C00FF"/>
<stop offset="1" stop-color="#38ACA8"/>
</linearGradient>
<linearGradient id="paint18_linear_284_2223" x1="393.678" y1="240.057" x2="309.696" y2="200.61" gradientUnits="userSpaceOnUse">
<stop stop-color="#6C00FF"/>
<stop offset="1" stop-color="#38ACA8"/>
</linearGradient>
<linearGradient id="paint19_linear_284_2223" x1="389.167" y1="241.398" x2="388.333" y2="259.796" gradientUnits="userSpaceOnUse">
<stop stop-color="#DAB145"/>
<stop offset="0.99" stop-color="#FEFEFE"/>
</linearGradient>
<linearGradient id="paint20_linear_284_2223" x1="289.143" y1="294.829" x2="339.013" y2="294.829" gradientUnits="userSpaceOnUse">
<stop stop-color="#6C00FF"/>
<stop offset="1" stop-color="#5F637A"/>
</linearGradient>
<linearGradient id="paint21_linear_284_2223" x1="257.837" y1="230.42" x2="257.837" y2="257.777" gradientUnits="userSpaceOnUse">
<stop stop-color="#6C00FF"/>
<stop offset="1" stop-color="#6C00FF" stop-opacity="0"/>
</linearGradient>
<linearGradient id="paint22_linear_284_2223" x1="217.357" y1="178.163" x2="258.613" y2="178.163" gradientUnits="userSpaceOnUse">
<stop stop-color="#38ACA8"/>
<stop offset="1" stop-color="#C8C7C7"/>
</linearGradient>
<linearGradient id="paint23_linear_284_2223" x1="175.255" y1="199.387" x2="226.399" y2="199.387" gradientUnits="userSpaceOnUse">
<stop stop-color="#6C00FF"/>
<stop offset="1" stop-color="#5F637A"/>
</linearGradient>
<linearGradient id="paint24_linear_284_2223" x1="172.81" y1="203.511" x2="227.176" y2="203.511" gradientUnits="userSpaceOnUse">
<stop stop-color="#38ACA8"/>
<stop offset="1" stop-color="#C8C7C7"/>
</linearGradient>
<clipPath id="clip0_284_2223">
<rect width="670" height="570" fill="white"/>
</clipPath>
</defs>
</svg>
